<svg width="88" height="234" viewBox="0 0 88 234" fill="none" xmlns="http://www.w3.org/2000/svg">
<path d="M51.2995 0.358017C45.4654 2.31485 39.4964 10.6908 35.9536 21.9014C34.3747 26.9306 33.566 31.2832 33.2194 36.6416C32.8151 43.0242 33.5468 48.8398 37.4362 70.3283L37.7828 72.212L33.2579 76.6377C22.6486 87.0254 18.5089 91.3962 13.9456 97.0656C6.51328 106.301 2.31577 114.586 0.67913 123.272C-0.841984 131.337 0.236274 141.707 3.47105 150.174C9.0934 164.841 20.0108 174.753 34.2784 178.173C37.9753 179.069 40.5554 179.38 45.061 179.49C49.5666 179.6 53.3983 179.307 57.2684 178.576C58.7125 178.301 59.4635 178.21 59.502 178.338C59.6753 178.85 61.62 189.933 62.3902 194.633C64.5274 207.818 64.7007 212.628 63.1604 216.981C61.1194 222.76 56.3635 226.856 49.8169 228.502C47.4293 229.106 43.1741 229.197 41.0368 228.685C37.9753 227.954 35.6455 226.363 34.548 224.241C34.2014 223.601 33.9896 223.016 34.0474 222.961C34.1051 222.906 34.7213 222.741 35.4337 222.613C39.1306 221.864 42.5387 219.322 44.1946 216.03C45.1188 214.164 45.4076 213.012 45.4076 210.927C45.4076 206.008 42.3076 201.71 37.3977 199.845C30.1387 197.083 22.148 200.924 19.7605 208.294C18.6244 211.823 18.4896 216.67 19.4331 219.322C22.2828 227.204 33.2194 233.495 44.9647 233.97C56.3635 234.446 65.0088 229.179 68.3398 219.706C69.6299 216.011 70.1883 211.293 69.8224 206.867C69.4181 201.93 67.7815 192.017 65.5094 180.825L64.6622 176.71L65.2591 176.454C70.6696 174.077 73.5386 172.303 76.6963 169.413C77.9094 168.298 79.4883 166.634 80.2007 165.719C88.5379 155.203 89.5392 139.878 82.7038 127.826C81.3175 125.394 79.4112 122.998 77.1199 120.822C73.1728 117.073 68.9367 114.842 63.5454 113.689C61.1001 113.159 55.8051 113.013 53.0709 113.415C51.9734 113.58 51.0492 113.689 51.0107 113.653C50.9722 113.616 47.9492 99.6442 46.7939 94.176L46.1008 90.8476L48.4691 88.4153C56.6715 80.0942 61.6007 72.468 64.8355 63.1594C67.8392 54.5274 68.9945 46.316 68.7827 35.2517C68.6479 27.9731 68.0703 23.2913 66.6262 17.7134C63.3529 5.03978 57.4225 -1.67197 51.2995 0.358017ZM58.5778 21.1333C61.0231 22.322 62.4094 25.5408 62.6212 30.5883C62.8715 36.093 61.6392 41.0674 58.6548 46.8647C55.6703 52.6071 51.2803 58.3679 44.3293 65.5917L41.7877 68.2435L41.5567 67.0548C41.1716 65.0431 40.3629 59.0446 40.1511 56.7403C39.9393 54.308 40.1511 49.8091 40.6517 46.2246C41.961 36.6416 45.3883 28.5583 50.0672 23.9863C53.0902 21.0602 56.2287 19.9995 58.5778 21.1333ZM42.8275 97.3399C43.1741 98.9492 44.1368 103.594 44.984 107.654C46.5436 115.098 46.5629 115.335 45.8697 115.354C45.7734 115.354 44.7529 115.811 43.5977 116.36C36.3964 119.761 30.8896 125.394 28.0014 132.288C25.9989 137.117 25.7486 142.877 27.3468 147.687C27.9437 149.461 29.407 152.223 30.6393 153.868C32.6033 156.502 36.1461 159.629 39.4964 161.677C41.1716 162.702 45.2343 164.732 45.6194 164.732C45.7734 164.732 46.0815 164.476 46.3126 164.183L46.7169 163.634L44.6374 161.659C40.1318 157.435 37.5902 153.119 36.7815 148.4C36.4349 146.407 36.4157 145.236 36.7045 143.463C37.4939 138.378 40.4207 134.026 44.907 131.246C46.1393 130.496 48.8734 129.253 49.3355 129.253C49.4318 129.253 49.7399 130.386 50.0094 131.758C50.2983 133.148 51.4343 138.634 52.5511 143.975C55.2467 156.923 58.4815 172.998 58.3852 173.071C58.3467 173.126 57.4995 173.345 56.4983 173.583C50.4523 175.046 43.6747 175.046 37.725 173.583C26.9617 170.95 18.8747 165.097 14.4654 156.721C11.7698 151.582 10.5375 145.547 10.7493 138.488C10.9418 131.978 12.0586 127.57 14.8313 122.212C17.2574 117.493 19.8375 114.183 24.9399 109.245C26.6921 107.545 29.8884 104.673 32.0449 102.845C41.0753 95.2368 42.1536 94.3406 42.1921 94.3772C42.2113 94.3955 42.5001 95.7305 42.8275 97.3399ZM59.4442 129.051C64.5659 130.313 68.9752 133.605 71.9212 138.397C74.2703 142.219 75.4255 146.443 75.4255 151.198C75.4063 157.508 73.346 162.665 69.0715 166.963C67.4541 168.572 63.8343 171.187 63.5454 170.913C63.4492 170.822 63.1218 169.322 60.484 157.051C58.2697 146.736 54.438 129.289 54.284 128.814C54.1684 128.485 54.2455 128.466 56.0554 128.576C57.1144 128.631 58.6355 128.85 59.4442 129.051Z" fill="white"/>
</svg>
